<svg xmlns="http://www.w3.org/2000/svg" xmlns:xlink="http://www.w3.org/1999/xlink" width="500" zoomAndPan="magnify" viewBox="0 0 375 374.999991" height="500" preserveAspectRatio="xMidYMid meet" version="1.0"><defs><g/></defs><g fill="#ff0000" fill-opacity="1"><g transform="translate(67.899367, 308.334925)"><g><path d="M 6.515625 0 L 6.515625 -216.953125 L 81.796875 -216.953125 C 91.628906 -216.953125 99.65625 -215.144531 105.875 -211.53125 C 112.09375 -207.914062 116.71875 -203.140625 119.75 -197.203125 C 122.789062 -191.273438 124.3125 -184.84375 124.3125 -177.90625 C 124.3125 -167.925781 122.828125 -159.5 119.859375 -152.625 C 116.898438 -145.757812 113.03125 -140.082031 108.25 -135.59375 C 103.476562 -131.113281 98.453125 -127.460938 93.171875 -124.640625 C 87.898438 -121.816406 82.875 -119.390625 78.09375 -117.359375 C 73.320312 -115.335938 69.453125 -113.347656 66.484375 -111.390625 C 63.523438 -109.441406 62.046875 -107.097656 62.046875 -104.359375 C 62.046875 -101.316406 63.5625 -98.78125 66.59375 -96.75 C 69.632812 -94.726562 73.539062 -92.738281 78.3125 -90.78125 C 83.09375 -88.832031 88.117188 -86.554688 93.390625 -83.953125 C 98.671875 -81.359375 103.695312 -77.960938 108.46875 -73.765625 C 113.25 -69.566406 117.15625 -64.175781 120.1875 -57.59375 C 123.226562 -51.019531 124.75 -42.816406 124.75 -32.984375 C 124.75 -28.492188 124.457031 -23.71875 123.875 -18.65625 C 123.300781 -13.59375 122.722656 -9.21875 122.140625 -5.53125 C 121.566406 -1.84375 121.28125 0 121.28125 0 L 78.109375 0 C 78.109375 0 78.722656 -2.53125 79.953125 -7.59375 C 81.179688 -12.65625 81.796875 -21.625 81.796875 -34.5 C 81.796875 -45.488281 80.78125 -54.414062 78.75 -61.28125 C 76.726562 -68.15625 74.269531 -73.722656 71.375 -77.984375 C 68.476562 -82.253906 65.546875 -85.90625 62.578125 -88.9375 C 59.617188 -91.976562 57.125 -95.085938 55.09375 -98.265625 C 53.070312 -101.453125 52.0625 -105.503906 52.0625 -110.421875 C 52.0625 -118.085938 53.796875 -125.425781 57.265625 -132.4375 C 60.742188 -139.457031 65.085938 -146.113281 70.296875 -152.40625 C 75.503906 -158.695312 80.707031 -164.585938 85.90625 -170.078125 C 91.113281 -175.578125 95.453125 -180.710938 98.921875 -185.484375 C 102.398438 -190.265625 104.140625 -194.679688 104.140625 -198.734375 C 104.140625 -200.753906 103.304688 -202.59375 101.640625 -204.25 C 99.972656 -205.914062 97.40625 -206.75 93.9375 -206.75 C 89.601562 -206.75 85.625 -205.703125 82 -203.609375 C 78.382812 -201.515625 74.984375 -198.910156 71.796875 -195.796875 C 68.617188 -192.691406 65.40625 -189.617188 62.15625 -186.578125 C 58.90625 -183.546875 55.46875 -180.976562 51.84375 -178.875 C 48.226562 -176.78125 44.179688 -175.734375 39.703125 -175.734375 C 36.234375 -175.734375 33.410156 -176.382812 31.234375 -177.6875 C 29.066406 -178.988281 27.222656 -180.253906 25.703125 -181.484375 C 24.191406 -182.710938 22.640625 -183.328125 21.046875 -183.328125 C 19.597656 -183.328125 18.472656 -182.710938 17.671875 -181.484375 C 16.878906 -180.253906 16.484375 -178.625 16.484375 -176.59375 C 16.484375 -171.25 17.566406 -165.5 19.734375 -159.34375 C 21.910156 -153.195312 24.625 -146.363281 27.875 -138.84375 C 31.132812 -131.320312 34.351562 -122.71875 37.53125 -113.03125 C 40.71875 -103.34375 43.394531 -92.347656 45.5625 -80.046875 C 47.726562 -67.753906 48.8125 -53.726562 48.8125 -37.96875 L 48.8125 0 Z M 6.515625 0 "/></g></g></g><g fill="#ff0000" fill-opacity="1"><g transform="translate(194.820756, 308.334925)"><g><path d="M 2.171875 -50.546875 C 4.335938 -52.140625 6.578125 -53.332031 8.890625 -54.125 C 11.203125 -54.925781 13.953125 -55.328125 17.140625 -55.328125 C 22.640625 -55.328125 27.410156 -53.914062 31.453125 -51.09375 C 35.503906 -48.269531 39.226562 -44.796875 42.625 -40.671875 C 46.03125 -36.554688 49.429688 -32.4375 52.828125 -28.3125 C 56.222656 -24.1875 59.984375 -20.710938 64.109375 -17.890625 C 68.234375 -15.078125 73.113281 -13.671875 78.75 -13.671875 C 82.507812 -13.671875 85.800781 -14.71875 88.625 -16.8125 C 91.445312 -18.90625 93.6875 -21.503906 95.34375 -24.609375 C 97.007812 -27.722656 97.84375 -30.800781 97.84375 -33.84375 C 97.84375 -39.914062 96.144531 -45.59375 92.75 -50.875 C 89.351562 -56.15625 84.867188 -61.363281 79.296875 -66.5 C 73.722656 -71.632812 67.570312 -76.835938 60.84375 -82.109375 C 54.125 -87.390625 47.398438 -92.992188 40.671875 -98.921875 C 33.953125 -104.859375 27.804688 -111.296875 22.234375 -118.234375 C 16.671875 -125.179688 12.1875 -132.847656 8.78125 -141.234375 C 5.382812 -149.617188 3.6875 -159.019531 3.6875 -169.4375 C 3.6875 -174.9375 4.660156 -180.503906 6.609375 -186.140625 C 8.566406 -191.785156 11.460938 -196.921875 15.296875 -201.546875 C 19.128906 -206.171875 23.71875 -209.894531 29.0625 -212.71875 C 34.414062 -215.539062 40.421875 -216.953125 47.078125 -216.953125 L 113.03125 -216.953125 L 113.03125 -176.59375 C 111.875 -175.4375 110.28125 -174.425781 108.25 -173.5625 C 106.226562 -172.695312 103.914062 -172.265625 101.3125 -172.265625 C 96.25 -172.265625 90.894531 -173.347656 85.25 -175.515625 C 79.613281 -177.679688 74.007812 -180.390625 68.4375 -183.640625 C 62.875 -186.898438 57.597656 -190.117188 52.609375 -193.296875 C 47.617188 -196.484375 43.207031 -199.160156 39.375 -201.328125 C 35.539062 -203.503906 32.613281 -204.59375 30.59375 -204.59375 C 29 -204.59375 27.585938 -203.757812 26.359375 -202.09375 C 25.128906 -200.425781 24.515625 -198.289062 24.515625 -195.6875 C 24.515625 -187.59375 26.210938 -180.363281 29.609375 -174 C 33.015625 -167.632812 37.5 -161.773438 43.0625 -156.421875 C 48.632812 -151.066406 54.742188 -145.820312 61.390625 -140.6875 C 68.046875 -135.5625 74.703125 -130.285156 81.359375 -124.859375 C 88.015625 -119.429688 94.125 -113.425781 99.6875 -106.84375 C 105.257812 -100.269531 109.742188 -92.859375 113.140625 -84.609375 C 116.535156 -76.367188 118.234375 -66.820312 118.234375 -55.96875 C 118.234375 -43.53125 115.125 -32.789062 108.90625 -23.75 C 102.6875 -14.71875 94.148438 -7.773438 83.296875 -2.921875 C 72.453125 1.921875 60.09375 4.34375 46.21875 4.34375 C 41.726562 4.34375 36.988281 3.765625 32 2.609375 C 27.007812 1.453125 22.304688 -0.0976562 17.890625 -2.046875 C 13.484375 -4.003906 9.832031 -6.066406 6.9375 -8.234375 C 4.050781 -10.410156 2.460938 -12.4375 2.171875 -14.3125 Z M 34.0625 -259.265625 C 33.195312 -260.128906 32.765625 -261.066406 32.765625 -262.078125 C 32.765625 -263.960938 33.628906 -264.90625 35.359375 -264.90625 C 37.097656 -264.90625 39.445312 -263.925781 42.40625 -261.96875 C 45.375 -260.019531 48.738281 -258.03125 52.5 -256 C 56.257812 -253.976562 60.019531 -252.96875 63.78125 -252.96875 C 67.6875 -252.96875 71.484375 -253.976562 75.171875 -256 C 78.859375 -258.03125 82.21875 -260.019531 85.25 -261.96875 C 88.289062 -263.925781 90.609375 -264.90625 92.203125 -264.90625 C 93.941406 -264.90625 94.8125 -263.960938 94.8125 -262.078125 C 94.8125 -261.066406 94.375 -260.128906 93.5 -259.265625 C 89.738281 -255.640625 86.085938 -251.691406 82.546875 -247.421875 C 79.003906 -243.160156 75.640625 -239.546875 72.453125 -236.578125 C 69.273438 -233.617188 66.382812 -232.140625 63.78125 -232.140625 C 61.175781 -232.140625 58.28125 -233.617188 55.09375 -236.578125 C 51.914062 -239.546875 48.554688 -243.160156 45.015625 -247.421875 C 41.472656 -251.691406 37.820312 -255.640625 34.0625 -259.265625 Z M 34.0625 -259.265625 "/></g></g></g><g fill="#00ffff" fill-opacity="1"><g transform="translate(59.763142, 308.334925)"><g><path d="M 6.515625 0 L 6.515625 -216.953125 L 81.796875 -216.953125 C 91.628906 -216.953125 99.65625 -215.144531 105.875 -211.53125 C 112.09375 -207.914062 116.71875 -203.140625 119.75 -197.203125 C 122.789062 -191.273438 124.3125 -184.84375 124.3125 -177.90625 C 124.3125 -167.925781 122.828125 -159.5 119.859375 -152.625 C 116.898438 -145.757812 113.03125 -140.082031 108.25 -135.59375 C 103.476562 -131.113281 98.453125 -127.460938 93.171875 -124.640625 C 87.898438 -121.816406 82.875 -119.390625 78.09375 -117.359375 C 73.320312 -115.335938 69.453125 -113.347656 66.484375 -111.390625 C 63.523438 -109.441406 62.046875 -107.097656 62.046875 -104.359375 C 62.046875 -101.316406 63.5625 -98.78125 66.59375 -96.75 C 69.632812 -94.726562 73.539062 -92.738281 78.3125 -90.78125 C 83.09375 -88.832031 88.117188 -86.554688 93.390625 -83.953125 C 98.671875 -81.359375 103.695312 -77.960938 108.46875 -73.765625 C 113.25 -69.566406 117.15625 -64.175781 120.1875 -57.59375 C 123.226562 -51.019531 124.75 -42.816406 124.75 -32.984375 C 124.75 -28.492188 124.457031 -23.71875 123.875 -18.65625 C 123.300781 -13.59375 122.722656 -9.21875 122.140625 -5.53125 C 121.566406 -1.84375 121.28125 0 121.28125 0 L 78.109375 0 C 78.109375 0 78.722656 -2.53125 79.953125 -7.59375 C 81.179688 -12.65625 81.796875 -21.625 81.796875 -34.5 C 81.796875 -45.488281 80.78125 -54.414062 78.75 -61.28125 C 76.726562 -68.15625 74.269531 -73.722656 71.375 -77.984375 C 68.476562 -82.253906 65.546875 -85.90625 62.578125 -88.9375 C 59.617188 -91.976562 57.125 -95.085938 55.09375 -98.265625 C 53.070312 -101.453125 52.0625 -105.503906 52.0625 -110.421875 C 52.0625 -118.085938 53.796875 -125.425781 57.265625 -132.4375 C 60.742188 -139.457031 65.085938 -146.113281 70.296875 -152.40625 C 75.503906 -158.695312 80.707031 -164.585938 85.90625 -170.078125 C 91.113281 -175.578125 95.453125 -180.710938 98.921875 -185.484375 C 102.398438 -190.265625 104.140625 -194.679688 104.140625 -198.734375 C 104.140625 -200.753906 103.304688 -202.59375 101.640625 -204.25 C 99.972656 -205.914062 97.40625 -206.75 93.9375 -206.75 C 89.601562 -206.75 85.625 -205.703125 82 -203.609375 C 78.382812 -201.515625 74.984375 -198.910156 71.796875 -195.796875 C 68.617188 -192.691406 65.40625 -189.617188 62.15625 -186.578125 C 58.90625 -183.546875 55.46875 -180.976562 51.84375 -178.875 C 48.226562 -176.78125 44.179688 -175.734375 39.703125 -175.734375 C 36.234375 -175.734375 33.410156 -176.382812 31.234375 -177.6875 C 29.066406 -178.988281 27.222656 -180.253906 25.703125 -181.484375 C 24.191406 -182.710938 22.640625 -183.328125 21.046875 -183.328125 C 19.597656 -183.328125 18.472656 -182.710938 17.671875 -181.484375 C 16.878906 -180.253906 16.484375 -178.625 16.484375 -176.59375 C 16.484375 -171.25 17.566406 -165.5 19.734375 -159.34375 C 21.910156 -153.195312 24.625 -146.363281 27.875 -138.84375 C 31.132812 -131.320312 34.351562 -122.71875 37.53125 -113.03125 C 40.71875 -103.34375 43.394531 -92.347656 45.5625 -80.046875 C 47.726562 -67.753906 48.8125 -53.726562 48.8125 -37.96875 L 48.8125 0 Z M 6.515625 0 "/></g></g></g><g fill="#00ffff" fill-opacity="1"><g transform="translate(186.684531, 308.334925)"><g><path d="M 2.171875 -50.546875 C 4.335938 -52.140625 6.578125 -53.332031 8.890625 -54.125 C 11.203125 -54.925781 13.953125 -55.328125 17.140625 -55.328125 C 22.640625 -55.328125 27.410156 -53.914062 31.453125 -51.09375 C 35.503906 -48.269531 39.226562 -44.796875 42.625 -40.671875 C 46.03125 -36.554688 49.429688 -32.4375 52.828125 -28.3125 C 56.222656 -24.1875 59.984375 -20.710938 64.109375 -17.890625 C 68.234375 -15.078125 73.113281 -13.671875 78.75 -13.671875 C 82.507812 -13.671875 85.800781 -14.71875 88.625 -16.8125 C 91.445312 -18.90625 93.6875 -21.503906 95.34375 -24.609375 C 97.007812 -27.722656 97.84375 -30.800781 97.84375 -33.84375 C 97.84375 -39.914062 96.144531 -45.59375 92.75 -50.875 C 89.351562 -56.15625 84.867188 -61.363281 79.296875 -66.5 C 73.722656 -71.632812 67.570312 -76.835938 60.84375 -82.109375 C 54.125 -87.390625 47.398438 -92.992188 40.671875 -98.921875 C 33.953125 -104.859375 27.804688 -111.296875 22.234375 -118.234375 C 16.671875 -125.179688 12.1875 -132.847656 8.78125 -141.234375 C 5.382812 -149.617188 3.6875 -159.019531 3.6875 -169.4375 C 3.6875 -174.9375 4.660156 -180.503906 6.609375 -186.140625 C 8.566406 -191.785156 11.460938 -196.921875 15.296875 -201.546875 C 19.128906 -206.171875 23.71875 -209.894531 29.0625 -212.71875 C 34.414062 -215.539062 40.421875 -216.953125 47.078125 -216.953125 L 113.03125 -216.953125 L 113.03125 -176.59375 C 111.875 -175.4375 110.28125 -174.425781 108.25 -173.5625 C 106.226562 -172.695312 103.914062 -172.265625 101.3125 -172.265625 C 96.25 -172.265625 90.894531 -173.347656 85.25 -175.515625 C 79.613281 -177.679688 74.007812 -180.390625 68.4375 -183.640625 C 62.875 -186.898438 57.597656 -190.117188 52.609375 -193.296875 C 47.617188 -196.484375 43.207031 -199.160156 39.375 -201.328125 C 35.539062 -203.503906 32.613281 -204.59375 30.59375 -204.59375 C 29 -204.59375 27.585938 -203.757812 26.359375 -202.09375 C 25.128906 -200.425781 24.515625 -198.289062 24.515625 -195.6875 C 24.515625 -187.59375 26.210938 -180.363281 29.609375 -174 C 33.015625 -167.632812 37.5 -161.773438 43.0625 -156.421875 C 48.632812 -151.066406 54.742188 -145.820312 61.390625 -140.6875 C 68.046875 -135.5625 74.703125 -130.285156 81.359375 -124.859375 C 88.015625 -119.429688 94.125 -113.425781 99.6875 -106.84375 C 105.257812 -100.269531 109.742188 -92.859375 113.140625 -84.609375 C 116.535156 -76.367188 118.234375 -66.820312 118.234375 -55.96875 C 118.234375 -43.53125 115.125 -32.789062 108.90625 -23.75 C 102.6875 -14.71875 94.148438 -7.773438 83.296875 -2.921875 C 72.453125 1.921875 60.09375 4.34375 46.21875 4.34375 C 41.726562 4.34375 36.988281 3.765625 32 2.609375 C 27.007812 1.453125 22.304688 -0.0976562 17.890625 -2.046875 C 13.484375 -4.003906 9.832031 -6.066406 6.9375 -8.234375 C 4.050781 -10.410156 2.460938 -12.4375 2.171875 -14.3125 Z M 34.0625 -259.265625 C 33.195312 -260.128906 32.765625 -261.066406 32.765625 -262.078125 C 32.765625 -263.960938 33.628906 -264.90625 35.359375 -264.90625 C 37.097656 -264.90625 39.445312 -263.925781 42.40625 -261.96875 C 45.375 -260.019531 48.738281 -258.03125 52.5 -256 C 56.257812 -253.976562 60.019531 -252.96875 63.78125 -252.96875 C 67.6875 -252.96875 71.484375 -253.976562 75.171875 -256 C 78.859375 -258.03125 82.21875 -260.019531 85.25 -261.96875 C 88.289062 -263.925781 90.609375 -264.90625 92.203125 -264.90625 C 93.941406 -264.90625 94.8125 -263.960938 94.8125 -262.078125 C 94.8125 -261.066406 94.375 -260.128906 93.5 -259.265625 C 89.738281 -255.640625 86.085938 -251.691406 82.546875 -247.421875 C 79.003906 -243.160156 75.640625 -239.546875 72.453125 -236.578125 C 69.273438 -233.617188 66.382812 -232.140625 63.78125 -232.140625 C 61.175781 -232.140625 58.28125 -233.617188 55.09375 -236.578125 C 51.914062 -239.546875 48.554688 -243.160156 45.015625 -247.421875 C 41.472656 -251.691406 37.820312 -255.640625 34.0625 -259.265625 Z M 34.0625 -259.265625 "/></g></g></g><g fill="#000000" fill-opacity="1"><g transform="translate(63.831255, 308.334925)"><g><path d="M 6.515625 0 L 6.515625 -216.953125 L 81.796875 -216.953125 C 91.628906 -216.953125 99.65625 -215.144531 105.875 -211.53125 C 112.09375 -207.914062 116.71875 -203.140625 119.75 -197.203125 C 122.789062 -191.273438 124.3125 -184.84375 124.3125 -177.90625 C 124.3125 -167.925781 122.828125 -159.5 119.859375 -152.625 C 116.898438 -145.757812 113.03125 -140.082031 108.25 -135.59375 C 103.476562 -131.113281 98.453125 -127.460938 93.171875 -124.640625 C 87.898438 -121.816406 82.875 -119.390625 78.09375 -117.359375 C 73.320312 -115.335938 69.453125 -113.347656 66.484375 -111.390625 C 63.523438 -109.441406 62.046875 -107.097656 62.046875 -104.359375 C 62.046875 -101.316406 63.5625 -98.78125 66.59375 -96.75 C 69.632812 -94.726562 73.539062 -92.738281 78.3125 -90.78125 C 83.09375 -88.832031 88.117188 -86.554688 93.390625 -83.953125 C 98.671875 -81.359375 103.695312 -77.960938 108.46875 -73.765625 C 113.25 -69.566406 117.15625 -64.175781 120.1875 -57.59375 C 123.226562 -51.019531 124.75 -42.816406 124.75 -32.984375 C 124.75 -28.492188 124.457031 -23.71875 123.875 -18.65625 C 123.300781 -13.59375 122.722656 -9.21875 122.140625 -5.53125 C 121.566406 -1.84375 121.28125 0 121.28125 0 L 78.109375 0 C 78.109375 0 78.722656 -2.53125 79.953125 -7.59375 C 81.179688 -12.65625 81.796875 -21.625 81.796875 -34.5 C 81.796875 -45.488281 80.78125 -54.414062 78.75 -61.28125 C 76.726562 -68.15625 74.269531 -73.722656 71.375 -77.984375 C 68.476562 -82.253906 65.546875 -85.90625 62.578125 -88.9375 C 59.617188 -91.976562 57.125 -95.085938 55.09375 -98.265625 C 53.070312 -101.453125 52.0625 -105.503906 52.0625 -110.421875 C 52.0625 -118.085938 53.796875 -125.425781 57.265625 -132.4375 C 60.742188 -139.457031 65.085938 -146.113281 70.296875 -152.40625 C 75.503906 -158.695312 80.707031 -164.585938 85.90625 -170.078125 C 91.113281 -175.578125 95.453125 -180.710938 98.921875 -185.484375 C 102.398438 -190.265625 104.140625 -194.679688 104.140625 -198.734375 C 104.140625 -200.753906 103.304688 -202.59375 101.640625 -204.25 C 99.972656 -205.914062 97.40625 -206.75 93.9375 -206.75 C 89.601562 -206.75 85.625 -205.703125 82 -203.609375 C 78.382812 -201.515625 74.984375 -198.910156 71.796875 -195.796875 C 68.617188 -192.691406 65.40625 -189.617188 62.15625 -186.578125 C 58.90625 -183.546875 55.46875 -180.976562 51.84375 -178.875 C 48.226562 -176.78125 44.179688 -175.734375 39.703125 -175.734375 C 36.234375 -175.734375 33.410156 -176.382812 31.234375 -177.6875 C 29.066406 -178.988281 27.222656 -180.253906 25.703125 -181.484375 C 24.191406 -182.710938 22.640625 -183.328125 21.046875 -183.328125 C 19.597656 -183.328125 18.472656 -182.710938 17.671875 -181.484375 C 16.878906 -180.253906 16.484375 -178.625 16.484375 -176.59375 C 16.484375 -171.25 17.566406 -165.5 19.734375 -159.34375 C 21.910156 -153.195312 24.625 -146.363281 27.875 -138.84375 C 31.132812 -131.320312 34.351562 -122.71875 37.53125 -113.03125 C 40.71875 -103.34375 43.394531 -92.347656 45.5625 -80.046875 C 47.726562 -67.753906 48.8125 -53.726562 48.8125 -37.96875 L 48.8125 0 Z M 6.515625 0 "/></g></g></g><g fill="#000000" fill-opacity="1"><g transform="translate(190.752644, 308.334925)"><g><path d="M 2.171875 -50.546875 C 4.335938 -52.140625 6.578125 -53.332031 8.890625 -54.125 C 11.203125 -54.925781 13.953125 -55.328125 17.140625 -55.328125 C 22.640625 -55.328125 27.410156 -53.914062 31.453125 -51.09375 C 35.503906 -48.269531 39.226562 -44.796875 42.625 -40.671875 C 46.03125 -36.554688 49.429688 -32.4375 52.828125 -28.3125 C 56.222656 -24.1875 59.984375 -20.710938 64.109375 -17.890625 C 68.234375 -15.078125 73.113281 -13.671875 78.75 -13.671875 C 82.507812 -13.671875 85.800781 -14.71875 88.625 -16.8125 C 91.445312 -18.90625 93.6875 -21.503906 95.34375 -24.609375 C 97.007812 -27.722656 97.84375 -30.800781 97.84375 -33.84375 C 97.84375 -39.914062 96.144531 -45.59375 92.75 -50.875 C 89.351562 -56.15625 84.867188 -61.363281 79.296875 -66.5 C 73.722656 -71.632812 67.570312 -76.835938 60.84375 -82.109375 C 54.125 -87.390625 47.398438 -92.992188 40.671875 -98.921875 C 33.953125 -104.859375 27.804688 -111.296875 22.234375 -118.234375 C 16.671875 -125.179688 12.1875 -132.847656 8.78125 -141.234375 C 5.382812 -149.617188 3.6875 -159.019531 3.6875 -169.4375 C 3.6875 -174.9375 4.660156 -180.503906 6.609375 -186.140625 C 8.566406 -191.785156 11.460938 -196.921875 15.296875 -201.546875 C 19.128906 -206.171875 23.71875 -209.894531 29.0625 -212.71875 C 34.414062 -215.539062 40.421875 -216.953125 47.078125 -216.953125 L 113.03125 -216.953125 L 113.03125 -176.59375 C 111.875 -175.4375 110.28125 -174.425781 108.25 -173.5625 C 106.226562 -172.695312 103.914062 -172.265625 101.3125 -172.265625 C 96.25 -172.265625 90.894531 -173.347656 85.25 -175.515625 C 79.613281 -177.679688 74.007812 -180.390625 68.4375 -183.640625 C 62.875 -186.898438 57.597656 -190.117188 52.609375 -193.296875 C 47.617188 -196.484375 43.207031 -199.160156 39.375 -201.328125 C 35.539062 -203.503906 32.613281 -204.59375 30.59375 -204.59375 C 29 -204.59375 27.585938 -203.757812 26.359375 -202.09375 C 25.128906 -200.425781 24.515625 -198.289062 24.515625 -195.6875 C 24.515625 -187.59375 26.210938 -180.363281 29.609375 -174 C 33.015625 -167.632812 37.5 -161.773438 43.0625 -156.421875 C 48.632812 -151.066406 54.742188 -145.820312 61.390625 -140.6875 C 68.046875 -135.5625 74.703125 -130.285156 81.359375 -124.859375 C 88.015625 -119.429688 94.125 -113.425781 99.6875 -106.84375 C 105.257812 -100.269531 109.742188 -92.859375 113.140625 -84.609375 C 116.535156 -76.367188 118.234375 -66.820312 118.234375 -55.96875 C 118.234375 -43.53125 115.125 -32.789062 108.90625 -23.75 C 102.6875 -14.71875 94.148438 -7.773438 83.296875 -2.921875 C 72.453125 1.921875 60.09375 4.34375 46.21875 4.34375 C 41.726562 4.34375 36.988281 3.765625 32 2.609375 C 27.007812 1.453125 22.304688 -0.0976562 17.890625 -2.046875 C 13.484375 -4.003906 9.832031 -6.066406 6.9375 -8.234375 C 4.050781 -10.410156 2.460938 -12.4375 2.171875 -14.3125 Z M 34.0625 -259.265625 C 33.195312 -260.128906 32.765625 -261.066406 32.765625 -262.078125 C 32.765625 -263.960938 33.628906 -264.90625 35.359375 -264.90625 C 37.097656 -264.90625 39.445312 -263.925781 42.40625 -261.96875 C 45.375 -260.019531 48.738281 -258.03125 52.5 -256 C 56.257812 -253.976562 60.019531 -252.96875 63.78125 -252.96875 C 67.6875 -252.96875 71.484375 -253.976562 75.171875 -256 C 78.859375 -258.03125 82.21875 -260.019531 85.25 -261.96875 C 88.289062 -263.925781 90.609375 -264.90625 92.203125 -264.90625 C 93.941406 -264.90625 94.8125 -263.960938 94.8125 -262.078125 C 94.8125 -261.066406 94.375 -260.128906 93.5 -259.265625 C 89.738281 -255.640625 86.085938 -251.691406 82.546875 -247.421875 C 79.003906 -243.160156 75.640625 -239.546875 72.453125 -236.578125 C 69.273438 -233.617188 66.382812 -232.140625 63.78125 -232.140625 C 61.175781 -232.140625 58.28125 -233.617188 55.09375 -236.578125 C 51.914062 -239.546875 48.554688 -243.160156 45.015625 -247.421875 C 41.472656 -251.691406 37.820312 -255.640625 34.0625 -259.265625 Z M 34.0625 -259.265625 "/></g></g></g></svg>